<?xml version="1.0" encoding="UTF-8" standalone="no"?>
<svg width="72px" height="13px" viewBox="0 0 72 13" version="1.1" xmlns="http://www.w3.org/2000/svg" xmlns:xlink="http://www.w3.org/1999/xlink" xmlns:sketch="http://www.bohemiancoding.com/sketch/ns">
    <!-- Generator: Sketch 3.3 (11970) - http://www.bohemiancoding.com/sketch -->
    <title>icon-sprites</title>
    <desc>Created with Sketch.</desc>
    <defs></defs>
    <g id="Page-1" stroke="none" stroke-width="1" fill="none" fill-rule="evenodd" sketch:type="MSPage">
        <g id="icon-sprites" sketch:type="MSArtboardGroup">
            <g id="icon-date" sketch:type="MSLayerGroup">
                <path d="M1,0.998502329 L1,0.998502329 L1,12.0014977 C1,11.9995581 1.00044351,12 1.00247329,12 L10.9975267,12 C10.9962973,12 11,11.9963295 11,12.0014977 L11,0.998502329 C11,1.00044188 10.9995565,1 10.9975267,1 L1.00247329,1 C1.00370272,1 1,1.00367051 1,0.998502329 L1,0.998502329 Z M0,0.998502329 C0,0.44704472 0.455760956,0 1.00247329,0 L10.9975267,0 C11.5511774,0 12,0.447489426 12,0.998502329 L12,12.0014977 C12,12.5529553 11.544239,13 10.9975267,13 L1.00247329,13 C0.448822582,13 0,12.5525106 0,12.0014977 L0,0.998502329 L0,0.998502329 Z" id="Shape" opacity="0.3" fill="#B1B7CB" sketch:type="MSShapeGroup"></path>
                <path d="M1,1.00247329 L1,1.00247329 L1,10.9975267 C1,10.9954155 1.00456273,11 1.00247329,11 L10.9975267,11 C10.9954155,11 11,10.9954373 11,10.9975267 L11,1.00247329 C11,1.00458454 10.9954373,1 10.9975267,1 L1.00247329,1 C1.00458454,1 1,1.00456273 1,1.00247329 L1,1.00247329 Z M0,1.00247329 C0,0.448822582 0.455760956,0 1.00247329,0 L10.9975267,0 C11.5511774,0 12,0.455760956 12,1.00247329 L12,10.9975267 C12,11.5511774 11.544239,12 10.9975267,12 L1.00247329,12 C0.448822582,12 0,11.544239 0,10.9975267 L0,1.00247329 L0,1.00247329 Z" id="Shape" fill="#B1B7CB" sketch:type="MSShapeGroup"></path>
                <rect id="Rectangle-18" fill="#E55888" sketch:type="MSShapeGroup" x="0" y="0" width="12" height="4" rx="1"></rect>
                <rect id="Rectangle-14" fill="#C42C60" sketch:type="MSShapeGroup" x="0" y="3" width="12" height="1"></rect>
                <rect id="Rectangle-15" fill="#FFFFFF" sketch:type="MSShapeGroup" x="2" y="1" width="1" height="1"></rect>
                <rect id="Rectangle-15" fill="#FFFFFF" sketch:type="MSShapeGroup" x="9" y="1" width="1" height="1"></rect>
            </g>
            <g id="icon-category" sketch:type="MSLayerGroup" transform="translate(12.000000, 0.000000)">
                <path d="M1,1.99791312 L1,1.99791312 L1,4.00208688 C1,4.55026591 1.45071608,5 2.0048815,5 L2.9951185,5 C3.55302399,5 4,4.55400652 4,4.00208688 L4,1.99791312 C4,1.44973409 3.54928392,1 2.9951185,1 L2.0048815,1 C1.44697601,1 1,1.44599348 1,1.99791312 L1,1.99791312 Z M0,1.99791312 C0,0.894496173 0.893899798,0 2.0048815,0 L2.9951185,0 C4.10238398,0 5,0.898260623 5,1.99791312 L5,4.00208688 C5,5.10550383 4.1061002,6 2.9951185,6 L2.0048815,6 C0.897616023,6 0,5.10173938 0,4.00208688 L0,1.99791312 L0,1.99791312 Z" id="Shape" opacity="0.3" fill="#B1B7CB" sketch:type="MSShapeGroup"></path>
                <path d="M8,8.99791312 L8,8.99791312 L8,11.0020869 C8,11.5502659 8.45071608,12 9.0048815,12 L9.9951185,12 C10.553024,12 11,11.5540065 11,11.0020869 L11,8.99791312 C11,8.44973409 10.5492839,8 9.9951185,8 L9.0048815,8 C8.44697601,8 8,8.44599348 8,8.99791312 L8,8.99791312 Z M7,8.99791312 C7,7.89449617 7.8938998,7 9.0048815,7 L9.9951185,7 C11.102384,7 12,7.89826062 12,8.99791312 L12,11.0020869 C12,12.1055038 11.1061002,13 9.9951185,13 L9.0048815,13 C7.89761602,13 7,12.1017394 7,11.0020869 L7,8.99791312 L7,8.99791312 Z" id="Shape" opacity="0.3" fill="#B1B7CB" sketch:type="MSShapeGroup"></path>
                <path d="M1,8.99791312 L1,8.99791312 L1,11.0020869 C1,11.5502659 1.45071608,12 2.0048815,12 L2.9951185,12 C3.55302399,12 4,11.5540065 4,11.0020869 L4,8.99791312 C4,8.44973409 3.54928392,8 2.9951185,8 L2.0048815,8 C1.44697601,8 1,8.44599348 1,8.99791312 L1,8.99791312 Z M0,8.99791312 C0,7.89449617 0.893899798,7 2.0048815,7 L2.9951185,7 C4.10238398,7 5,7.89826062 5,8.99791312 L5,11.0020869 C5,12.1055038 4.1061002,13 2.9951185,13 L2.0048815,13 C0.897616023,13 0,12.1017394 0,11.0020869 L0,8.99791312 L0,8.99791312 Z" id="Shape" opacity="0.3" fill="#B1B7CB" sketch:type="MSShapeGroup"></path>
                <path d="M8,2.0048815 L8,2.0048815 L8,2.9951185 C8,3.55224497 8.44832905,4 9.0048815,4 L9.9951185,4 C10.552245,4 11,3.55167095 11,2.9951185 L11,2.0048815 C11,1.44775503 10.5516709,1 9.9951185,1 L9.0048815,1 C8.44775503,1 8,1.44832905 8,2.0048815 L8,2.0048815 Z M7,2.0048815 C7,0.897616023 7.8938998,0 9.0048815,0 L9.9951185,0 C11.102384,0 12,0.893899798 12,2.0048815 L12,2.9951185 C12,4.10238398 11.1061002,5 9.9951185,5 L9.0048815,5 C7.89761602,5 7,4.1061002 7,2.9951185 L7,2.0048815 L7,2.0048815 Z" id="Shape" fill="#E55888" sketch:type="MSShapeGroup"></path>
                <path d="M8,1.99791312 L8,1.99791312 L8,4.00208688 C8,4.55026591 8.45071608,5 9.0048815,5 L9.9951185,5 C10.553024,5 11,4.55400652 11,4.00208688 L11,1.99791312 C11,1.44973409 10.5492839,1 9.9951185,1 L9.0048815,1 C8.44697601,1 8,1.44599348 8,1.99791312 L8,1.99791312 Z M7,1.99791312 C7,0.894496173 7.8938998,0 9.0048815,0 L9.9951185,0 C11.102384,0 12,0.898260623 12,1.99791312 L12,4.00208688 C12,5.10550383 11.1061002,6 9.9951185,6 L9.0048815,6 C7.89761602,6 7,5.10173938 7,4.00208688 L7,1.99791312 L7,1.99791312 Z" id="Shape" opacity="0.3" fill="#E55888" sketch:type="MSShapeGroup"></path>
                <path d="M1,9.0048815 L1,9.0048815 L1,9.9951185 C1,10.552245 1.44832905,11 2.0048815,11 L2.9951185,11 C3.55224497,11 4,10.5516709 4,9.9951185 L4,9.0048815 C4,8.44775503 3.55167095,8 2.9951185,8 L2.0048815,8 C1.44775503,8 1,8.44832905 1,9.0048815 L1,9.0048815 Z M0,9.0048815 C0,7.89761602 0.893899798,7 2.0048815,7 L2.9951185,7 C4.10238398,7 5,7.8938998 5,9.0048815 L5,9.9951185 C5,11.102384 4.1061002,12 2.9951185,12 L2.0048815,12 C0.897616023,12 0,11.1061002 0,9.9951185 L0,9.0048815 L0,9.0048815 Z" id="Shape" fill="#B1B7CB" sketch:type="MSShapeGroup"></path>
                <path d="M1,2.0048815 L1,2.0048815 L1,2.9951185 C1,3.55224497 1.44832905,4 2.0048815,4 L2.9951185,4 C3.55224497,4 4,3.55167095 4,2.9951185 L4,2.0048815 C4,1.44775503 3.55167095,1 2.9951185,1 L2.0048815,1 C1.44775503,1 1,1.44832905 1,2.0048815 L1,2.0048815 Z M0,2.0048815 C0,0.897616023 0.893899798,0 2.0048815,0 L2.9951185,0 C4.10238398,0 5,0.893899798 5,2.0048815 L5,2.9951185 C5,4.10238398 4.1061002,5 2.9951185,5 L2.0048815,5 C0.897616023,5 0,4.1061002 0,2.9951185 L0,2.0048815 L0,2.0048815 Z" id="Shape" fill="#B1B7CB" sketch:type="MSShapeGroup"></path>
                <path d="M8,9.0048815 L8,9.0048815 L8,9.9951185 C8,10.552245 8.44832905,11 9.0048815,11 L9.9951185,11 C10.552245,11 11,10.5516709 11,9.9951185 L11,9.0048815 C11,8.44775503 10.5516709,8 9.9951185,8 L9.0048815,8 C8.44775503,8 8,8.44832905 8,9.0048815 L8,9.0048815 Z M7,9.0048815 C7,7.89761602 7.8938998,7 9.0048815,7 L9.9951185,7 C11.102384,7 12,7.8938998 12,9.0048815 L12,9.9951185 C12,11.102384 11.1061002,12 9.9951185,12 L9.0048815,12 C7.89761602,12 7,11.1061002 7,9.9951185 L7,9.0048815 L7,9.0048815 Z" id="Shape" fill="#B1B7CB" sketch:type="MSShapeGroup"></path>
            </g>
            <g id="icon-comment" sketch:type="MSLayerGroup" transform="translate(24.000000, 0.000000)" fill="#B1B7CB">
                <rect id="Rectangle-40" sketch:type="MSShapeGroup" x="2" y="3" width="8" height="1"></rect>
                <rect id="Rectangle-41" sketch:type="MSShapeGroup" x="2" y="5" width="4" height="1"></rect>
                <path d="M9,9 L9,9 L9.9914698,9 C10.5478977,9 11,8.55032213 11,8.00038502 L11,1.99961498 C11,1.44402857 10.5527829,1 9.9914698,1 L2.0085302,1 C1.45210227,1 1,1.44967787 1,1.99961498 L1,8.00038502 C1,8.55597143 1.44721709,9 2.0085302,9 L4.37261122,9 L4.73786,9 L5.01712618,9.23540829 L8.10833525,11.8411526 C8.21657459,11.9323933 8.29952715,11.9802065 8.34220508,11.9926752 C8.30476853,11.9817378 8.22482427,11.9846556 8.13344708,12.0265322 C8.04059902,12.0690828 7.98419813,12.130123 7.96678584,12.1689618 C7.98353627,12.1315993 8,12.0409477 8,11.9029735 L8,10 L8,9 L9,9 Z M9,10 L9,10 L9,10 L9,11.9029735 C9,13.0044867 8.31222892,13.320913 7.46382029,12.6057443 L4.37261122,10 L2.0085302,10 C0.899249601,10 0,9.11256671 0,8.00038502 L0,1.99961498 C0,0.895258123 0.901950359,0 2.0085302,0 L9.9914698,0 C11.1007504,0 12,0.88743329 12,1.99961498 L12,8.00038502 C12,9.10474188 11.0980496,10 9.9914698,10 L9,10 Z" id="Shape" opacity="0.3" sketch:type="MSShapeGroup"></path>
                <path d="M9,8 L9,8 L9.9914698,8 C10.5481451,8 11,7.5510679 11,7.0026083 L11,1.9973917 C11,1.44871619 10.5490303,1 9.9914698,1 L2.0085302,1 C1.45185488,1 1,1.4489321 1,1.9973917 L1,7.0026083 C1,7.55128381 1.4509697,8 2.0085302,8 L4.37261122,8 L4.73786,8 L5.01712618,8.23540829 L8.10833525,10.8411526 C8.21657459,10.9323933 8.29952715,10.9802065 8.34220508,10.9926752 C8.30476853,10.9817378 8.22482427,10.9846556 8.13344708,11.0265322 C8.04059902,11.0690828 7.98419813,11.130123 7.96678584,11.1689618 C7.98353627,11.1315993 8,11.0409477 8,10.9029735 L8,9 L8,8 L9,8 Z M9,9 L9,9 L9,9 L9,10.9029735 C9,12.0044867 8.31222892,12.320913 7.46382029,11.6057443 L4.37261122,9 L2.0085302,9 C0.899249601,9 0,8.10414219 0,7.0026083 L0,1.9973917 C0,0.894262725 0.901950359,0 2.0085302,0 L9.9914698,0 C11.1007504,0 12,0.895857811 12,1.9973917 L12,7.0026083 C12,8.10573727 11.0980496,9 9.9914698,9 L9,9 Z" id="Shape" sketch:type="MSShapeGroup"></path>
            </g>
            <g id="icon-popular-copy" sketch:type="MSLayerGroup" transform="translate(61.000000, 0.000000)">
                <path d="M9,12.6 L9,2 L10,3 L0,3 L1,2 L1,12.6 L0.628609324,12.7485563 L5.55111512e-17,12.322967 L0,11.922967 L4.62860932,10.0715233 L5,9.92296704 L5.37139068,10.0715233 L10,11.922967 L10,12.322967 L9.37139068,12.7485563 L9,12.6 L9,12.6 Z M0,2 L10,2 L10,13 L5,11 L0,13 L0,2 L0,2 Z" id="Shape" opacity="0.3" fill="#B1B7CB" sketch:type="MSShapeGroup"></path>
                <path d="M9,11.6 L9,2 L10,3 L7.63278329e-16,3 L1,2 L1,11.6 L0.628609324,11.7485563 L0,11.322967 L7.63278329e-16,10.922967 L4.62860932,9.07152331 L5,8.92296704 L5.37139068,9.07152331 L10,10.922967 L10,11.322967 L9.37139068,11.7485563 L9,11.6 L9,11.6 Z M8.8817842e-16,2 L10,2 L10,12 L5,10 L8.8817842e-16,12 L8.8817842e-16,2 L8.8817842e-16,2 Z" id="Shape" fill="#B1B7CB" sketch:type="MSShapeGroup"></path>
                <rect id="Rectangle-86" fill="#E55888" sketch:type="MSShapeGroup" x="0" y="0" width="10" height="1"></rect>
            </g>
            <g id="icon-supporter-copy" sketch:type="MSLayerGroup" transform="translate(36.000000, 0.000000)">
                <path d="M9.37135922,10.6421266 C9.37135922,11.6665976 9.1401222,12.0402134 8.69660194,12.0402134 C8.43673143,12.0402134 7.5602965,11.7455718 6.19329864,11.1725402 L6,11.0915113 L5.80670136,11.1725402 C4.4397035,11.7455718 3.56326857,12.0402134 3.30339806,12.0402134 C2.8598778,12.0402134 2.62864078,11.6665976 2.62864078,10.6421266 C2.62864078,10.389953 2.65516935,9.7519137 2.70805393,8.74185321 L2.71766204,8.55834469 L2.60614857,8.4122884 C1.55016448,7.02919886 1,6.10794409 1,5.85441503 C1,5.55094028 1.21277521,5.29622505 1.74082949,5.0663564 C1.96006231,4.96673338 2.65346307,4.76184105 3.7768404,4.46842891 L3.97360053,4.41703761 L4.07863343,4.24290058 C4.64079496,3.31087687 4.97123051,2.77073767 5.05312509,2.64908295 C5.44295284,2.09779319 5.77378765,1.85000002 6,1.85000002 C6.20821661,1.85000002 6.55543767,2.11215025 6.98617295,2.695273 L7.92187667,4.2437444 L8.02695516,4.41718275 L8.2231596,4.46842891 C9.34653693,4.76184105 10.0399377,4.96673338 10.2517607,5.06305908 C10.7872248,5.29622505 11,5.55094028 11,5.85441503 C11,6.10794409 10.4498355,7.02919886 9.39385143,8.4122884 L9.28233796,8.55834469 L9.29194607,8.74185321 C9.34483065,9.7519137 9.37135922,10.389953 9.37135922,10.6421266 L9.37135922,10.6421266 Z M10.3713592,10.6421266 C10.3713592,10.3654774 10.3444903,9.71925181 10.2905782,8.689567 L10.1886728,9.01913181 C11.4110173,7.41814952 12,6.43189332 12,5.85441503 C12,5.10024408 11.5186074,4.52396443 10.6583052,4.1494641 C10.3791537,4.02244876 9.66641963,3.81184365 8.47586952,3.50088682 L8.77715245,3.72557132 L7.81598741,2.13911069 C7.18889374,1.28664094 6.61055771,0.850000024 6,0.850000024 C5.37183915,0.850000024 4.79491604,1.28211176 4.23004811,2.08126757 C4.1274741,2.2334089 3.79934018,2.7697858 3.22233745,3.72641515 L3.52413048,3.50088682 C2.33358037,3.81184365 1.62084633,4.02244876 1.33428497,4.15276143 C0.481392601,4.52396443 0,5.10024408 0,5.85441503 C0,6.43189332 0.588982707,7.41814952 1.81132716,9.01913181 L1.70942179,8.689567 C1.65550973,9.71925181 1.62864078,10.3654774 1.62864078,10.6421266 C1.62864078,12.1484507 2.18056744,13.0402134 3.30339806,13.0402134 C3.75550522,13.0402134 4.67678693,12.7304951 6.19329864,12.0947888 L5.80670136,12.0947888 C7.32321307,12.7304951 8.24449478,13.0402134 8.69660194,13.0402134 C9.81943256,13.0402134 10.3713592,12.1484507 10.3713592,10.6421266 L10.3713592,10.6421266 Z" id="Shape" opacity="0.3" fill="#B1B7CB" sketch:type="MSShapeGroup"></path>
                <path d="M9.37135922,9.83512583 C9.37135922,10.8595968 9.1401222,11.2332127 8.69660194,11.2332127 C8.43673143,11.2332127 7.5602965,10.938571 6.19329864,10.3655394 L6,10.2845106 L5.80670136,10.3655394 C4.4397035,10.938571 3.56326857,11.2332127 3.30339806,11.2332127 C2.8598778,11.2332127 2.62864078,10.8595968 2.62864078,9.83512583 C2.62864078,9.5829522 2.65516935,8.94491294 2.70805393,7.93485246 L2.71766204,7.75134393 L2.60614857,7.60528764 C1.55016448,6.2221981 1,5.30094333 1,5.04741428 C1,4.74393952 1.21277521,4.48922429 1.74082949,4.25935564 C1.96006231,4.15973262 2.65346307,3.95484029 3.7768404,3.66142815 L3.97360053,3.61003686 L4.07863343,3.43589982 C4.64079496,2.50387611 4.97123051,1.96373692 5.05312509,1.84208219 C5.44295284,1.29079243 5.77378765,1.04299927 6,1.04299927 C6.20821661,1.04299927 6.55543767,1.3051495 6.98617295,1.88827224 L7.92187667,3.43674364 L8.02695516,3.610182 L8.2231596,3.66142815 C9.34653693,3.95484029 10.0399377,4.15973262 10.2517607,4.25605832 C10.7872248,4.48922429 11,4.74393952 11,5.04741428 C11,5.30094333 10.4498355,6.2221981 9.39385143,7.60528764 L9.28233796,7.75134393 L9.29194607,7.93485246 C9.34483065,8.94491294 9.37135922,9.5829522 9.37135922,9.83512583 L9.37135922,9.83512583 Z M10.3713592,9.83512583 C10.3713592,9.55847661 10.3444903,8.91225105 10.2905782,7.88256624 L10.1886728,8.21213105 C11.4110173,6.61114877 12,5.62489257 12,5.04741428 C12,4.29324333 11.5186074,3.71696368 10.6583052,3.34246335 C10.3791537,3.215448 9.66641963,3.00484289 8.47586952,2.69388606 L8.77715245,2.91857057 L7.81598741,1.33210993 C7.18889374,0.479640185 6.61055771,0.0429992676 6,0.0429992676 C5.37183915,0.0429992676 4.79491604,0.475111003 4.23004811,1.27426681 C4.1274741,1.42640815 3.79934018,1.96278504 3.22233745,2.91941439 L3.52413048,2.69388606 C2.33358037,3.00484289 1.62084633,3.215448 1.33428497,3.34576067 C0.481392601,3.71696368 0,4.29324333 0,5.04741428 C0,5.62489257 0.588982707,6.61114877 1.81132716,8.21213105 L1.70942179,7.88256624 C1.65550973,8.91225105 1.62864078,9.55847661 1.62864078,9.83512583 C1.62864078,11.3414499 2.18056744,12.2332127 3.30339806,12.2332127 C3.75550522,12.2332127 4.67678693,11.9234944 6.19329864,11.287788 L5.80670136,11.287788 C7.32321307,11.9234944 8.24449478,12.2332127 8.69660194,12.2332127 C9.81943256,12.2332127 10.3713592,11.3414499 10.3713592,9.83512583 L10.3713592,9.83512583 Z" id="Shape" fill="#B1B7CB" sketch:type="MSShapeGroup"></path>
                <path d="M6,8 L6,8 C6.55228475,8 7,7.55228475 7,7 C7,6.44771525 6.55228475,6 6,6 C5.44771525,6 5,6.44771525 5,7 C5,7.55228475 5.44771525,8 6,8 L6,8 Z M6,9 L6,9 C4.8954305,9 4,8.1045695 4,7 C4,5.8954305 4.8954305,5 6,5 C7.1045695,5 8,5.8954305 8,7 C8,8.1045695 7.1045695,9 6,9 L6,9 Z" id="Shape" fill="#E55888" sketch:type="MSShapeGroup"></path>
            </g>
            <g id="icon-search-copy" sketch:type="MSLayerGroup" transform="translate(48.000000, 0.000000)">
                <path d="M5,10 L5,10 C7.209139,10 9,8.209139 9,6 C9,3.790861 7.209139,2 5,2 C2.790861,2 1,3.790861 1,6 C1,8.209139 2.790861,10 5,10 L5,10 Z M5,11 L5,11 C2.23857625,11 0,8.76142375 0,6 C0,3.23857625 2.23857625,1 5,1 C7.76142375,1 10,3.23857625 10,6 C10,8.76142375 7.76142375,11 5,11 L5,11 Z" id="Shape" opacity="0.3" fill="#B1B7CB" sketch:type="MSShapeGroup"></path>
                <path d="M7.14644661,8.85355339 L11.1464466,12.8535534 L11.8535534,12.1464466 L7.85355339,8.14644661 L7.14644661,8.85355339 L7.14644661,8.85355339 Z" id="Shape" opacity="0.3" fill="#B1B7CB" sketch:type="MSShapeGroup"></path>
                <path d="M5,9 L5,9 C7.209139,9 9,7.209139 9,5 C9,2.790861 7.209139,1 5,1 C2.790861,1 1,2.790861 1,5 C1,7.209139 2.790861,9 5,9 L5,9 Z M5,10 L5,10 C2.23857625,10 0,7.76142375 0,5 C0,2.23857625 2.23857625,0 5,0 C7.76142375,0 10,2.23857625 10,5 C10,7.76142375 7.76142375,10 5,10 L5,10 Z" id="Shape" fill="#B1B7CB" sketch:type="MSShapeGroup"></path>
                <path d="M8,5 C8,3.34314575 6.65685425,2 5,2 L5,3 C6.1045695,3 7,3.8954305 7,5 L8,5 L8,5 Z" id="Shape" fill="#E55888" sketch:type="MSShapeGroup"></path>
                <path d="M7.6109127,8.31801949 L11.1464466,11.8535534 L11.8535534,11.1464466 L8.31801949,7.6109127 L7.6109127,8.31801949 L7.6109127,8.31801949 Z" id="Shape" fill="#B1B7CB" sketch:type="MSShapeGroup"></path>
            </g>
        </g>
    </g>
</svg>