<?xml version="1.0" encoding="UTF-8" standalone="no"?>
<svg width="96px" height="24px" viewBox="0 0 96 24" version="1.1" xmlns="http://www.w3.org/2000/svg" xmlns:xlink="http://www.w3.org/1999/xlink" xmlns:sketch="http://www.bohemiancoding.com/sketch/ns">
    <!-- Generator: Sketch 3.3.1 (12005) - http://www.bohemiancoding.com/sketch -->
    <title>icon-social</title>
    <desc>Created with Sketch.</desc>
    <defs></defs>
    <g id="Page-1" stroke="none" stroke-width="1" fill="none" fill-rule="evenodd" sketch:type="MSPage">
        <g id="icon-social" sketch:type="MSArtboardGroup" fill="#7A8395">
            <path d="M11.4792653,8.91684323 C9.85548141,6.03038204 8.11810439,3.67601497 7.99135837,3.50263599 C5.37154211,4.74139895 3.41654457,7.15555187 2.80553311,10.063536 C3.05185084,10.0683188 6.96902021,10.1149518 11.4792653,8.91684323 L11.4792653,8.91684323 Z M12.6486767,12.0735365 C12.7706398,12.0340778 12.8949944,11.9970106 13.0181533,11.9611391 C12.782597,11.4266535 12.5255178,10.8909722 12.2564814,10.363661 C7.41860986,11.8128702 2.7768359,11.707647 2.61302265,11.7028642 C2.6094355,11.8033044 2.60465263,11.9013532 2.60465263,12.0017935 C2.60465263,14.4159464 3.51698481,16.6184574 5.0152184,18.2816999 L5.00923981,18.2745256 C5.00923981,18.2745256 7.58003168,13.7140604 12.6486767,12.0735365 L12.6486767,12.0735365 Z M6.22528415,19.4068698 L6.22528415,19.4020869 C6.15593255,19.3482796 6.08179809,19.2992552 6.0124465,19.2406651 C6.13919251,19.342301 6.22528415,19.4068698 6.22528415,19.4068698 L6.22528415,19.4068698 Z M9.74906258,2.87966735 C9.74069256,2.88205879 9.73112682,2.88445022 9.73112682,2.88445022 C9.73830113,2.88205879 9.74786686,2.88205879 9.74786686,2.88205879 L9.74906258,2.87966735 L9.74906258,2.87966735 Z M18.2039785,4.95064945 C16.549106,3.49426597 14.3788794,2.60584813 11.9994023,2.60584813 C11.235339,2.60584813 10.4951901,2.69911407 9.78493409,2.87010162 C9.92842015,3.06141636 11.6921029,5.40382625 13.2979511,8.35126902 C16.8396653,7.0252187 18.1776727,4.9889124 18.2039785,4.95064945 L18.2039785,4.95064945 Z M11.9994023,23.0011955 C5.92515914,23.0011955 1.00000022,18.0760366 1.00000022,12.0017935 C0.998804501,5.92515893 5.92396343,1 11.9994023,1 C18.0760368,1 23,5.92515893 23,12.0017935 C23,18.0760366 18.0760368,23.0011955 11.9994023,23.0011955 L11.9994023,23.0011955 Z M13.5968804,13.53829 C8.08342859,15.4598075 6.26235138,19.3231696 6.22528415,19.4020869 C7.82037082,20.6468284 9.81960989,21.3941517 11.9982065,21.3941517 C13.2991468,21.3941517 14.5391055,21.1298982 15.665471,20.6516113 C15.5267678,19.8277622 14.9803251,16.949671 13.6578619,13.5167671 C13.6387305,13.5239414 13.6184033,13.5311157 13.5968804,13.53829 L13.5968804,13.53829 Z M14.0201642,9.75264951 C14.2401762,10.198652 14.448231,10.6542202 14.6455243,11.1145713 C14.7160716,11.2759932 14.7818361,11.4398064 14.8487962,11.6000325 C18.0927768,11.1910972 21.287733,11.8846132 21.3929562,11.9061361 C21.3702375,9.67851505 20.5726942,7.63503445 19.2562096,6.03277347 C19.2346867,6.06027496 17.7268874,8.23648017 14.0201642,9.75264951 L14.0201642,9.75264951 Z M15.420349,13.0827218 C16.6531334,16.4737756 17.1529432,19.2310993 17.2486005,19.7918907 C19.3578456,18.3677916 20.8572749,16.1090819 21.2745802,13.4904613 C21.0880483,13.4306755 18.4574706,12.5972606 15.420349,13.0827218 L15.420349,13.0827218 Z" id="icon-dribbble" sketch:type="MSShapeGroup"></path>
            <path d="M43.7777778,2 L28.2222222,2 C27,2 26,3 26,4.22222222 L26,19.7777778 C26,21.0011111 27,22 28.2222222,22 L36,22 L36,14.2222222 L33.7777778,14.2222222 L33.7777778,11.4722222 L36,11.4722222 L36,9.19444444 C36,6.79 37.3466667,5.10111111 40.1844444,5.10111111 L42.1877778,5.10333333 L42.1877778,7.99777778 L40.8577778,7.99777778 C39.7533333,7.99777778 39.3333333,8.82666667 39.3333333,9.59555556 L39.3333333,11.4733333 L42.1866667,11.4733333 L41.5555556,14.2222222 L39.3333333,14.2222222 L39.3333333,22 L43.7777778,22 C45,22 46,21.0011111 46,19.7777778 L46,4.22222222 C46,3 45,2 43.7777778,2 L43.7777778,2 Z" id="icon-facebook" sketch:type="MSShapeGroup"></path>
            <path d="M68.7473913,7.13564312 C68.7569565,7.33740942 68.7605435,7.54166667 68.7605435,7.74343297 C68.7605435,13.9583333 64.2206522,21.1222826 55.9192391,21.1222826 C53.368913,21.1222826 50.9979348,20.3438632 49,19.0087183 C49.353913,19.0523098 49.7126087,19.0747283 50.076087,19.0747283 C52.1923913,19.0747283 54.1377174,18.3224638 55.6813043,17.0632926 C53.7072826,17.024683 52.0393478,15.6671196 51.4654348,13.798913 C51.7404348,13.8524683 52.0238043,13.8811141 52.3143478,13.8811141 C52.7268478,13.8811141 53.1261957,13.8250679 53.5040217,13.7179574 C51.4391304,13.2845335 49.883587,11.3851902 49.883587,9.10597826 L49.883587,9.04744112 C50.4921739,9.39990942 51.1892391,9.61163949 51.9281522,9.63654891 C50.7169565,8.79211957 49.9194565,7.35484601 49.9194565,5.72203351 C49.9194565,4.86141304 50.1418478,4.05310236 50.5316304,3.35812953 C52.7567391,6.2040308 56.0842391,8.07472826 59.835,8.27151268 C59.7584783,7.92651721 59.7190217,7.56906703 59.7190217,7.19916214 C59.7190217,4.60360054 61.7384783,2.5 64.231413,2.5 C65.5298913,2.5 66.7028261,3.06918025 67.5266304,3.98335598 C68.5536957,3.77162591 69.5197826,3.38054801 70.3926087,2.84250453 C70.0554348,3.93976449 69.3392391,4.86141304 68.4078261,5.44304801 C69.3213043,5.32846467 70.1893478,5.078125 71,4.70323822 C70.395,5.64730525 69.6297826,6.47429801 68.7473913,7.13564312 L68.7473913,7.13564312 Z" id="icon-twitter" sketch:type="MSShapeGroup"></path>
            <path d="M79,5 C79,6.062 78.29,6.976 76.999,6.976 C75.784,6.976 75,6.114 75,5.052 C75,3.962 75.76,3 77,3 C78.24,3 78.976,3.91 79,5 L79,5 Z M75,21 L75,8 L79,8 L79,21 L75,21 Z M81,12.444 C81,10.899 80.949,9.608 80.898,8.493 L84.492,8.493 L84.67,10.216 L84.746,10.216 C85.252,9.405 86.492,8.216 88.568,8.216 C91.1,8.216 93,9.911 93,13.558 L93,21 L89,21 L89,14.139 C89,12.545 88.393,11.329 87,11.329 C85.938,11.329 85.406,12.189 85.127,12.898 C85.025,13.152 85,13.506 85,13.861 L85,21 L81,21 L81,12.444 Z" id="icon-linkedin" sketch:type="MSShapeGroup"></path>
        </g>
    </g>
</svg>