<svg xmlns="http://www.w3.org/2000/svg" width="72" height="13" viewBox="0 0 72 13"><title>icon-sprites</title><path opacity=".3" fill="#B1B7CB" d="M1 .999v11.003C1 12 1 12 1.002 12h9.995c-.001 0 .003-.004.003.001V.999C11 1 11 1 10.998 1H1.002C1.004 1 1 1.004 1 .999zm-1 0C0 .447.456 0 1.002 0h9.995C11.551 0 12 .447 12 .999v11.003c0 .551-.456.998-1.002.998H1.002C.449 13 0 12.553 0 12.001V.999z"/><path fill="#B1B7CB" d="M1 1.002v9.995c0-.002.005.003.002.003h9.995c-.002 0 .003-.005.003-.002V1.002c0 .003-.005-.002-.002-.002H1.002C1.005 1 1 1.005 1 1.002zm-1 0C0 .449.456 0 1.002 0h9.995C11.551 0 12 .456 12 1.002v9.995c0 .554-.456 1.003-1.002 1.003H1.002C.449 12 0 11.544 0 10.998V1.002z"/><path fill="#E55888" d="M1 0h10c.552 0 1 .448 1 1v2c0 .552-.448 1-1 1H1c-.552 0-1-.448-1-1V1c0-.552.448-1 1-1z"/><path fill="#C42C60" d="M0 3h12v1H0z"/><path fill="#FFF" d="M2 1h1v1H2zM9 1h1v1H9z"/><g><path opacity=".3" fill="#B1B7CB" d="M13 1.998v2.004c0 .548.451.998 1.005.998h.99C15.553 5 16 4.554 16 4.002V1.998C16 1.45 15.549 1 14.995 1h-.99C13.447 1 13 1.446 13 1.998zm-1 0C12 .894 12.894 0 14.005 0h.99C16.102 0 17 .898 17 1.998v2.004C17 5.106 16.106 6 14.995 6h-.99C12.898 6 12 5.102 12 4.002V1.998zM20 8.998v2.004c0 .548.451.998 1.005.998h.99c.558 0 1.005-.446 1.005-.998V8.998C23 8.45 22.549 8 21.995 8h-.99C20.447 8 20 8.446 20 8.998zm-1 0C19 7.894 19.894 7 21.005 7h.99C23.102 7 24 7.898 24 8.998v2.004C24 12.106 23.106 13 21.995 13h-.99C19.898 13 19 12.102 19 11.002V8.998zM13 8.998v2.004c0 .548.451.998 1.005.998h.99c.558 0 1.005-.446 1.005-.998V8.998C16 8.45 15.549 8 14.995 8h-.99C13.447 8 13 8.446 13 8.998zm-1 0C12 7.894 12.894 7 14.005 7h.99C16.102 7 17 7.898 17 8.998v2.004C17 12.106 16.106 13 14.995 13h-.99C12.898 13 12 12.102 12 11.002V8.998z"/><path fill="#E55888" d="M20 2.005v.99C20 3.552 20.448 4 21.005 4h.99C22.552 4 23 3.552 23 2.995v-.99C23 1.448 22.552 1 21.995 1h-.99C20.448 1 20 1.448 20 2.005zm-1 0C19 .898 19.894 0 21.005 0h.99C23.102 0 24 .894 24 2.005v.99C24 4.102 23.106 5 21.995 5h-.99C19.898 5 19 4.106 19 2.995v-.99z"/><path opacity=".3" fill="#E55888" d="M20 1.998v2.004c0 .548.451.998 1.005.998h.99C22.553 5 23 4.554 23 4.002V1.998C23 1.45 22.549 1 21.995 1h-.99C20.447 1 20 1.446 20 1.998zm-1 0C19 .894 19.894 0 21.005 0h.99C23.102 0 24 .898 24 1.998v2.004C24 5.106 23.106 6 21.995 6h-.99C19.898 6 19 5.102 19 4.002V1.998z"/><path fill="#B1B7CB" d="M13 9.005v.99c0 .557.448 1.005 1.005 1.005h.99C15.552 11 16 10.552 16 9.995v-.99C16 8.448 15.552 8 14.995 8h-.99C13.448 8 13 8.448 13 9.005zm-1 0C12 7.898 12.894 7 14.005 7h.99C16.102 7 17 7.894 17 9.005v.99C17 11.102 16.106 12 14.995 12h-.99C12.898 12 12 11.106 12 9.995v-.99zM13 2.005v.99C13 3.552 13.448 4 14.005 4h.99C15.552 4 16 3.552 16 2.995v-.99C16 1.448 15.552 1 14.995 1h-.99C13.448 1 13 1.448 13 2.005zm-1 0C12 .898 12.894 0 14.005 0h.99C16.102 0 17 .894 17 2.005v.99C17 4.102 16.106 5 14.995 5h-.99C12.898 5 12 4.106 12 2.995v-.99zM20 9.005v.99c0 .557.448 1.005 1.005 1.005h.99C22.552 11 23 10.552 23 9.995v-.99C23 8.448 22.552 8 21.995 8h-.99C20.448 8 20 8.448 20 9.005zm-1 0C19 7.898 19.894 7 21.005 7h.99C23.102 7 24 7.894 24 9.005v.99C24 11.102 23.106 12 21.995 12h-.99C19.898 12 19 11.106 19 9.995v-.99z"/></g><g fill="#B1B7CB"><path d="M26 3h8v1h-8zM26 5h4v1h-4z"/><path opacity=".3" d="M33 9h.991C34.548 9 35 8.55 35 8V2c0-.556-.447-1-1.009-1h-7.982C25.452 1 25 1.45 25 2v6c0 .556.447 1 1.009 1h2.729l.279.235 3.091 2.606c.108.091.191.139.234.152-.037-.011-.117-.008-.209.034-.093.043-.149.104-.167.142.018-.037.034-.128.034-.266V9h1zm0 1v1.903c0 1.102-.688 1.418-1.536.703L28.373 10h-2.364C24.899 10 24 9.113 24 8V2c0-1.104.902-2 2.009-2h7.983C35.101 0 36 .887 36 2v6c0 1.104-.902 2-2.009 2H33z"/><path d="M33 8h.991C34.548 8 35 7.551 35 7.003V1.997C35 1.449 34.549 1 33.991 1h-7.982C25.452 1 25 1.449 25 1.997v5.005c0 .549.451.998 1.009.998h2.729l.279.235 3.091 2.606c.108.091.191.139.234.152-.037-.011-.117-.008-.209.034-.093.043-.149.104-.167.142.018-.037.034-.128.034-.266V8h1zm0 1v1.903c0 1.102-.688 1.418-1.536.703L28.373 9h-2.364C24.899 9 24 8.104 24 7.003V1.997C24 .894 24.902 0 26.009 0h7.983C35.101 0 36 .896 36 1.997v5.005C36 8.106 35.098 9 33.991 9H33z"/></g><g><path opacity=".3" fill="#B1B7CB" d="M61 2v11l5-2 5 2V2H61zm9 9.523l-4-1.6-4 1.6V3h8v8.523z"/><path fill="#B1B7CB" d="M61 2v10l5-2 5 2V2H61zm9 8.523l-4-1.6-4 1.6V3h8v7.523z"/><path fill="#E55888" d="M61 0h10v1H61z"/></g><g><path opacity=".3" fill="#B1B7CB" d="M48 5.854c0-.754-.481-1.33-1.342-1.705-.262-.119-.922-.315-1.985-.595l-.857-1.415C43.189 1.287 42.611.85 42 .85c-.628 0-1.205.432-1.77 1.231-.096.142-.396.633-.903 1.473-1.063.28-1.724.476-1.993.599C36.481 4.524 36 5.1 36 5.854c0 .559.557 1.506 1.7 3.017-.047.917-.072 1.512-.072 1.771 0 1.506.552 2.398 1.675 2.398.431 0 1.304-.291 2.697-.867 1.392.577 2.266.867 2.697.867 1.123 0 1.675-.892 1.675-2.398 0-.259-.024-.855-.072-1.771C47.443 7.36 48 6.413 48 5.854zm-2.606 2.558l-.112.146.01.184c.053 1.01.079 1.648.079 1.9 0 1.024-.231 1.398-.675 1.398-.26 0-1.136-.295-2.503-.868L42 11.091l-.193.081c-1.367.574-2.244.868-2.504.868-.444 0-.675-.374-.675-1.398 0-.252.026-.89.079-1.9l.01-.184-.111-.146C37.55 7.029 37 6.108 37 5.854c0-.303.213-.558.741-.788.219-.1.913-.305 2.036-.598l.197-.051.105-.174c.562-.932.893-1.472.974-1.594.39-.551.721-.799.947-.799.208 0 .555.262.986.845l.936 1.549.105.173.196.051c1.123.293 1.817.498 2.029.595.535.233.748.488.748.791 0 .254-.55 1.175-1.606 2.558z"/><path fill="#B1B7CB" d="M48 5.047c0-.754-.481-1.33-1.342-1.705-.262-.119-.923-.316-1.985-.596l-.857-1.414C43.189.48 42.611.043 42 .043c-.628 0-1.205.432-1.77 1.231-.096.142-.396.633-.903 1.473-1.063.28-1.724.477-1.993.599-.853.371-1.334.947-1.334 1.701 0 .559.557 1.506 1.7 3.017-.047.917-.071 1.512-.071 1.771 0 1.506.552 2.398 1.675 2.398.431 0 1.304-.291 2.697-.867 1.392.577 2.266.867 2.697.867 1.123 0 1.675-.892 1.675-2.398 0-.259-.024-.855-.072-1.771C47.443 6.553 48 5.606 48 5.047zm-2.606 2.558l-.112.146.01.184c.053 1.01.079 1.648.079 1.9 0 1.024-.231 1.398-.675 1.398-.26 0-1.136-.295-2.503-.868L42 10.284l-.193.081c-1.367.573-2.243.868-2.503.868-.444 0-.675-.374-.675-1.398 0-.252.026-.89.079-1.9l.01-.184-.112-.146C37.55 6.222 37 5.301 37 5.047c0-.303.213-.558.741-.788.219-.1.913-.305 2.036-.598l.197-.051.105-.174c.562-.932.893-1.472.974-1.594.39-.551.721-.799.947-.799.208 0 .555.262.986.845l.936 1.549.105.173.196.051c1.123.293 1.817.498 2.029.595.535.233.748.488.748.791 0 .254-.55 1.175-1.606 2.558z"/><path fill="#E55888" d="M42 8c.552 0 1-.448 1-1s-.448-1-1-1-1 .448-1 1 .448 1 1 1zm0 1c-1.105 0-2-.895-2-2s.895-2 2-2 2 .895 2 2-.895 2-2 2z"/></g><g><path opacity=".3" fill="#B1B7CB" d="M53 10c2.209 0 4-1.791 4-4s-1.791-4-4-4-4 1.791-4 4 1.791 4 4 4zm0 1c-2.761 0-5-2.239-5-5s2.239-5 5-5 5 2.239 5 5-2.239 5-5 5z"/><path opacity=".3" fill="#B1B7CB" d="M55.146 8.854l4 4 .707-.707-4-4-.707.707z"/><path fill="#B1B7CB" d="M53 9c2.209 0 4-1.791 4-4s-1.791-4-4-4-4 1.791-4 4 1.791 4 4 4zm0 1c-2.761 0-5-2.239-5-5s2.239-5 5-5 5 2.239 5 5-2.239 5-5 5z"/><path fill="#E55888" d="M56 5c0-1.657-1.343-3-3-3v1c1.105 0 2 .895 2 2h1z"/><path fill="#B1B7CB" d="M55.611 8.318l3.536 3.536.707-.707-3.536-3.536-.707.707z"/></g></svg>