<svg width="117" height="58" viewBox="0 0 117 58" xmlns="http://www.w3.org/2000/svg"><title>jayhan-widget-header</title><path d="M13.44525 9.93457c.05834-2.15834.175-6.125-.175-8.28334-.05833-.40833-.23333-1.05.46667-1.28333.58333-.175 1.05.11667 1.4.58333.29167.35.525.75834.875.875 2.04167.93334 2.33333 4.375 2.33333 6.35834-.05833 5.95-.11666 11.95833-.35 17.90833-.175 4.025-.23333 8.10833-.11666 12.19167.05832 2.21666-1.45835 4.375-3.73335 5.13333-5.425 1.75-11.49166-.93333-13.06666-6.65-.58335-2.39167-.81668-4.78333-1.05-7.175-.05835-.46667.05832-.99167.81665-.99167.64167 0 1.05.23334 1.10834.93334.11665 2.1.7 4.08333 1.10832 6.125.29167 1.45833.64167 3.20833 1.75 4.25833 1.86667 1.69167 5.89167 1.05 7.40833-.81667.7-.875.7-1.86666.81667-2.85833.23333-2.85833 0-5.65833 0-8.51667.05833-4.25833.23333-8.51666.40833-12.775.05834-1.69166 0-3.325 0-5.01666zm23.1 11.84166c0 1.16667-.11666 2.33334-.11666 3.26667-.11668 2.85833-.35 5.71667-.58335 8.51667-.23333 2.56666.11667 5.13333-.175 7.7-.11666.7.05834 1.63333-.7 1.925-.99166.35-2.1.40833-2.91666-.35-.525-.46667-.875-.35-1.34168-.05834-3.09167 1.925-7.75833 0-8.51667-3.55833-.58333-2.91667-.46666-5.89167.7-8.75.81667-1.80833 2.04167-3.325 4.25834-3.55833 1.05-.11667 1.925.40833 2.74165.875.64167.35.875.175.93334-.46667.175-.93333.35-1.86667.35-2.8.05832-2.39167.58332-4.78333.525-7.23333-.05835-1.63334-1.4-.99167-2.39168-.40834-1.28333.7-2.1 1.75-2.625 3.09167-.35.875-.875 1.69167-1.10833 2.56667-.23335.58333-.11668 2.275-1.34168 1.63333-.29167-.175-.29167-.64167-.29167-.99167 0-1.10833.525-2.275.99167-3.26666.81667-1.80834 1.575-3.325 3.26667-4.49167.93332-.64167 2.33332-1.4 3.5-1.34167 1.34165 0 2.33332.93334 3.26665 1.80834 1.4 1.4 1.63334 3.675 1.575 5.89166zm-5.89166 8.28334c-.11668-1.34167-2.39168-2.68334-3.55835-2.04167-1.10833.7-1.925 1.63333-2.39166 2.91667-.7 2.04166-.81668 4.08333-.93335 6.125-.05833 2.04166.525 3.85 2.56667 4.9 1.925.93333 4.14167-.40834 4.14167-2.50834-.05835-2.68333-.05835-5.36666.175-8.05v-1.34166zm25.9-4.49167c-.23335-4.31667 0-6.88333-2.39168-10.61667-.40833-.58333-.875-1.16666-1.69167-.99166-.75833.175-.525.93333-.525 1.45833 0 4.95833.11667 11.25833.23334 16.15833.05832 3.26667-.05835 6.475-.11668 9.74167-1.10833.875-2.33333 1.4-3.79167 1.4-1.34166.05833-1.86666-.64167-2.04166-1.75-.29168-1.575-.23335-3.15-.23335-4.725.05834-2.33333.11667-4.66667-.05833-7-.29167-2.975-.7-7.29167-.75833-10.26667-.05835-1.28333-.525-2.04166-1.575-2.56666-.64168-.29167-1.16668-.64167-1.4-1.4-.175-.525-.58335-1.10834-1.4-.875-.81668.175-.75835.75833-.75835 1.45833.11667 3.79167.93334 8.925.875 12.775v1.28333c.23334 3.44167-.05833 6.94167.93334 10.26667.75832 2.45 2.33332 3.96667 4.9 4.375 2.21665.35 3.85-.7 5.30832-2.1v2.85833c0 2.50834.05833 4.95834-.29167 7.46667-.23333 1.45833-1.80833 3.55833-3.15 3.675-.93333.05833-1.86666.23333-2.8.23333-2.45.11667-2.68333-.81666-3.5-3.20833-.23333-.75833-.40833-1.575-.64166-2.39167-.05835-.35-.29168-.81666-.7-.75833-.525.05833-.40835.58333-.40835.93333.175 3.90834.75834 6.06667 4.55 6.41667 3.38334.29167 6.70834.23333 9.39167-2.45.46667-.525.7-.99167.875-1.575 1.225-4.025 1.16667-8.225 1.28333-12.36667.23334-5.13333.175-10.26666-.11666-15.45833zm21.64165-2.56667c0 .525-.05833.99167-.11666 1.51667-.175 3.675-.40835 7.29167-.64168 10.96667l-.35 5.95c-.175 2.33333-.7 3.44166-2.74167 2.45-1.86666-.99167-2.1-1.28334-1.925-3.15.40834-3.26667.05834-6.53334.40834-9.85834.46665-3.90833.7-8.10833.40832-12.075-.11667-1.28333.05833-3.26666-1.86667-2.56666-1.80833.64166-3.20833 2.8-3.96666 4.43333-.35.875-.81668 1.98333-.81668 2.91667 0 2.56666-.35 5.13333-.525 7.7-.175 3.5-.40833 7-.58333 10.5-.05835 1.69166-2.45 3.325-3.90835 2.45-.93333-.58334-1.28333-1.86667-1.28333-3.03334.11667-5.075.29167-10.09166.525-15.10833.175-4.9.46667-9.8.40833-14.7-.05833-3.61667.05834-2.56667-.11666-6.24167-.05835-1.34166.05832-2.68333.175-4.025.05832-.525.46665-.81666.93332-1.05.58333-.23333.875.11667 1.28333.40834 2.275 1.925 2.68334 4.55 2.91667 7.35.23333 3.73333.40833 2.85833.175 6.59166-.05833.875-.40833 2.33334.23333 3.09167.64167.7 1.34167-.75833 1.63334-1.10833 1.51665-1.75 3.325-2.68334 5.71665-2.56667 3.26667.11667 3.09167 1.4 3.85 4.66667.35 1.45833.29167 2.975.175 4.49166zm18.31667-1.225c0 1.16667-.11667 2.33334-.11667 3.26667-.11666 2.85833-.35 5.71667-.58333 8.51667-.23333 2.56666.11667 5.13333-.175 7.7-.11667.7.05833 1.63333-.7 1.925-.99167.35-2.1.40833-2.91667-.35-.525-.46667-.875-.35-1.34166-.05834-3.09168 1.925-7.75835 0-8.51668-3.55833-.58333-2.91667-.46667-5.89167.7-8.75.81667-1.80833 2.04167-3.325 4.25833-3.55833 1.05-.11667 1.925.40833 2.74167.875.64167.35.875.175.93333-.46667.175-.93333.35-1.86667.35-2.8.05834-2.39167.58334-4.78333.525-7.23333-.05833-1.63334-1.4-.99167-2.39166-.40834-1.28335.7-2.1 1.75-2.625 3.09167-.35.875-.875 1.69167-1.10835 2.56667-.23333.58333-.11666 2.275-1.34166 1.63333-.29168-.175-.29168-.64167-.29168-.99167 0-1.10833.525-2.275.99167-3.26666.81665-1.80834 1.575-3.325 3.26665-4.49167.93334-.64167 2.33334-1.4 3.5-1.34167 1.34167 0 2.33334.93334 3.26667 1.80834 1.4 1.4 1.63333 3.675 1.575 5.89166zm-5.89167 8.28334c-.11666-1.34167-2.39166-2.68334-3.55833-2.04167-1.10833.7-1.925 1.63333-2.39167 2.91667-.7 2.04166-.81666 4.08333-.93333 6.125-.05833 2.04166.525 3.85 2.56667 4.9 1.925.93333 4.14165-.40834 4.14165-2.50834-.05833-2.68333-.05833-5.36666.175-8.05v-1.34166zm10.90834 7.525c-.35-6.06667-.7-12.25-.99168-18.43334-.11667-1.4.11667-2.85833-.46667-4.25833-.175-.40833 0-.75833.40834-1.05.35-.29167.64165-.11667.99165 0 1.69167.525 2.68334 1.925 3.79167 3.09167.525.58333.23333 1.69166.35 2.50833.05833.29167-.11667.64167.23333.75833.29167.11667.40834-.29166.58334-.525 1.4-1.51666 2.625-3.20833 4.25832-4.49166 1.45833-1.16667 3.73333-.81667 4.78333.75833.7.99167.99167 2.04167 1.05 3.26667.525 6.53333.35 13.125-.05833 19.71666-.05833.99167.05833 1.98334.11667 2.975.05832 1.4-.81668 2.50834-2.04168 2.625-.93333.05834-2.21667-1.16666-2.39167-2.15833-.58333-2.85833-.46666-5.775-.29166-8.63333.175-2.21667.11665-4.43334.23332-6.65.11667-2.85834.29167-5.775.40833-8.63334v-.875c-.05833-.64166-.29166-.81666-.93333-.40833-1.51667 1.05-2.68333 2.45-3.85 3.90833-.05833.05834-.05833.175-.11667.23334-2.39166 2.15833-1.575 4.9-1.575 7.58333 0 4.375.75834 8.80833.11667 13.18333-.23333 1.28334-1.28333 1.80834-2.45 1.225-1.51667-.875-2.50833-1.98333-2.15833-3.90833.11665-.525 0-1.10833 0-1.80833z" fill="#E55888" fill-rule="evenodd"/></svg>