<svg width="234" height="111" viewBox="0 0 234 111" xmlns="http://www.w3.org/2000/svg"><title>logo</title><g fill="none" fill-rule="evenodd"><path d="M27.637 37.707c-.415-3.677-1.162-10.437-2.27-14.016-.197-.678-.647-1.726.486-2.288.948-.436 1.81-.053 2.515.656.578.525 1.07 1.162 1.693 1.277 3.69 1.097 5.004 6.87 5.476 10.235 1.32 10.11 2.652 20.322 3.674 30.476.662 6.873 1.536 13.817 2.707 20.72.627 3.747-1.433 7.77-5.113 9.6-8.79 4.263-19.726 1.155-23.76-8.172-1.56-3.92-2.527-7.923-3.492-11.927-.21-.778-.138-1.697 1.15-1.877 1.088-.153 1.837.145 2.103 1.32.698 3.536 2.16 6.763 3.34 10.13.843 2.406 1.854 5.292 3.985 6.81 3.57 2.427 10.25.378 12.378-3.15.98-1.653.743-3.336.705-5.047-.285-4.906-1.348-9.603-2.03-14.454-.915-7.24-1.633-14.51-2.35-21.78-.304-2.884-.793-5.642-1.196-8.513zM69.663 52.3c.278 1.98.358 3.988.58 5.572.483 4.878.77 9.785 1.04 14.593.215 4.41 1.42 8.684 1.538 13.11-.03 1.215.49 2.757-.73 3.433-1.598.83-3.465 1.193-5.032.1-1.002-.666-1.57-.384-2.29.222-4.79 4.003-13.168 1.848-15.303-4.01-1.685-4.81-2.196-9.888-.897-15.017.955-3.263 2.673-6.13 6.38-7.053 1.753-.45 3.363.234 4.86.83 1.173.442 1.527.09 1.473-1.013.076-1.626.15-3.25-.072-4.835-.47-4.073-.15-8.257-.832-12.402-.49-2.758-2.613-1.35-4.157-.123-2.012 1.494-3.148 3.47-3.72 5.873-.384 1.568-1.08 3.08-1.268 4.62-.257 1.046.344 3.89-1.888 3.092-.537-.228-.648-1.02-.73-1.614-.266-1.88.347-3.986.903-5.78.955-3.264 1.88-6.018 4.474-8.402 1.432-1.31 3.627-2.932 5.62-3.11 2.278-.32 4.184 1.027 5.976 2.29 2.71 2.042 3.648 5.848 4.077 9.624zm-8.025 15.462c-.518-2.25-4.7-3.984-6.526-2.617-1.714 1.452-2.878 3.23-3.364 5.52-.7 3.63-.413 7.124-.124 10.617.387 3.48 1.808 6.41 5.523 7.704 3.49 1.126 6.932-1.68 6.432-5.244-.74-4.54-1.38-9.094-1.623-13.703l-.32-2.278zm42.885-13.795c-1.424-7.27-1.64-11.682-6.588-17.448-.832-.894-1.763-1.773-3.108-1.28-1.245.477-.668 1.708-.543 2.6 1.18 8.414 2.88 19.078 4.246 27.367.878 5.53 1.444 11.002 2.123 16.56-1.672 1.75-3.626 2.932-6.1 3.28-2.264.42-3.322-.644-3.883-2.484-.87-2.603-1.147-5.29-1.522-7.963-.457-3.974-.914-7.948-1.767-11.866-1.203-4.98-2.924-12.208-3.732-17.243-.405-2.164-1.378-3.34-3.285-3.98-1.158-.342-2.133-.81-2.71-2.043-.422-.85-1.254-1.742-2.584-1.15-1.345.49-1.107 1.467-.94 2.655 1.1 6.407 3.71 14.924 4.53 21.472l.304 2.178c1.217 5.786 1.556 11.795 4.03 17.202C84.867 85.8 87.9 88 92.355 88.08c3.845.067 6.367-2.104 8.508-4.828l.68 4.85c.6 4.258 1.282 8.402 1.285 12.743-.048 2.53-2.22 6.47-4.47 6.987-1.57.322-3.112.84-4.696 1.064-4.13.78-4.748-.747-6.704-4.61-.577-1.233-1.068-2.577-1.66-3.907-.18-.582-.688-1.318-1.368-1.122-.877.224-.554 1.088-.47 1.682 1.228 6.59 2.732 10.115 9.25 9.805 5.812-.31 11.44-1.202 15.356-6.395.667-1.003.952-1.85 1.11-2.882 1.12-7.123.02-14.237-.77-21.294-.826-8.767-2.148-17.465-3.88-26.207zm36.118-9.513c.126.89.138 1.697.164 2.602.58 6.28 1.045 12.472 1.524 18.765l.824 10.182c.26 4.002-.368 6.008-4.07 4.812-3.403-1.24-3.87-1.678-4.017-4.888-.085-5.64-1.457-11.102-1.656-16.828-.14-6.744-.745-13.928-2.185-20.59-.504-2.15-.68-5.558-3.78-3.912-2.916 1.52-4.777 5.517-5.675 8.47-.386 1.568-.914 3.56-.69 5.144.61 4.356.628 8.796.943 13.193.537 5.982.975 11.978 1.512 17.96.304 2.884-3.366 6.226-6.05 5.09-1.723-.77-2.622-2.864-2.9-4.844-1.012-8.64-1.91-17.197-2.71-25.767-.87-8.357-1.543-16.743-2.81-25.045-.96-6.124-.512-4.37-1.685-10.565-.418-2.263-.54-4.568-.662-6.873-.026-.905.598-1.497 1.334-2.004.935-.535 1.513-.01 2.275.387 4.32 2.725 5.64 7.083 6.702 11.78 1.284 6.28 1.373 4.753 1.867 11.144.11 1.5-.137 4.058 1.132 5.192 1.255 1.034 2.096-1.608 2.507-2.272 2.157-3.33 5.004-5.346 9.09-5.718 5.572-.58 5.58 1.64 7.647 7.003.94 2.39 1.203 4.98 1.367 7.58zm30.795-6.443c.278 1.98.358 3.988.58 5.572.483 4.88.77 9.786 1.04 14.593.215 4.412 1.42 8.685 1.538 13.11-.032 1.216.488 2.758-.73 3.434-1.6.83-3.466 1.192-5.033.1-1.002-.667-1.57-.386-2.29.22-4.79 4.004-13.168 1.85-15.303-4.01-1.685-4.81-2.196-9.887-.897-15.016.955-3.263 2.673-6.13 6.38-7.054 1.753-.448 3.363.235 4.86.832 1.173.44 1.527.09 1.473-1.014.075-1.626.15-3.252-.073-4.836-.47-4.073-.15-8.257-.832-12.4-.49-2.76-2.613-1.35-4.157-.124-2.01 1.494-3.146 3.47-3.717 5.873-.385 1.57-1.082 3.08-1.27 4.62-.256 1.046.345 3.89-1.887 3.092-.537-.227-.648-1.02-.73-1.613-.266-1.882.347-3.987.903-5.78.954-3.265 1.88-6.02 4.473-8.403 1.43-1.31 3.626-2.932 5.62-3.11 2.277-.32 4.183 1.027 5.975 2.29 2.71 2.042 3.648 5.848 4.077 9.624zm-8.025 15.462c-.518-2.25-4.7-3.984-6.526-2.617-1.714 1.452-2.878 3.23-3.364 5.52-.7 3.632-.413 7.125-.124 10.618.387 3.48 1.808 6.41 5.523 7.704 3.49 1.125 6.93-1.68 6.43-5.244-.738-4.54-1.377-9.094-1.62-13.704l-.32-2.278zm20.306 10.172c-2.04-10.212-4.107-20.623-6.076-31.048-.53-2.348-.483-4.878-1.806-7.115-.395-.65-.18-1.286.443-1.88.524-.577 1.06-.35 1.683-.235 2.996.488 5.012 2.628 7.17 4.344 1.03.863.8 2.814 1.193 4.172.168.48-.045 1.117.577 1.232.522.128.623-.593.865-1.03 2.014-2.908 3.69-6.07 6.156-8.638 2.198-2.328 6.143-2.276 8.3.147 1.424 1.516 2.17 3.23 2.56 5.294 2.448 10.963 3.722 22.19 4.6 33.476.137 1.697.57 3.352.906 5.02.433 2.363-.788 4.453-2.84 4.942-1.57.322-4.04-1.45-4.572-3.093-1.67-4.712-2.168-9.69-2.553-14.582-.23-3.804-.857-7.552-1.187-11.342-.483-4.88-.88-9.87-1.364-14.75l-.21-1.484c-.252-1.075-.69-1.317-1.68-.47-2.325 2.143-3.97 4.797-5.604 7.55-.085.113-.057.31-.142.424-3.545 4.232-1.506 8.69-.866 13.245 1.042 7.425 3.386 14.768 3.34 22.346-.09 2.233-1.748 3.374-3.867 2.662-2.78-1.124-4.73-2.768-4.593-6.12.073-.918-.264-1.88-.43-3.068z" id="Jayhan-2" opacity=".1" fill="#7D859F"/><path d="M18.612 28.87c-.415-3.675-1.162-10.435-2.27-14.015-.197-.68-.647-1.726.486-2.29.948-.435 1.81-.05 2.515.657.578.525 1.07 1.162 1.693 1.277 3.687 1.096 5.003 6.868 5.475 10.234 1.32 10.112 2.653 20.323 3.674 30.476.663 6.873 1.537 13.817 2.708 20.72.627 3.747-1.433 7.772-5.113 9.6-8.79 4.263-19.727 1.155-23.762-8.172-1.56-3.92-2.526-7.923-3.492-11.927-.21-.777-.137-1.695 1.15-1.876 1.09-.153 1.838.146 2.104 1.32.698 3.536 2.16 6.763 3.34 10.13.843 2.406 1.854 5.293 3.985 6.81 3.57 2.427 10.25.38 12.378-3.15.98-1.652.743-3.335.705-5.046-.285-4.907-1.348-9.603-2.03-14.454-.915-7.24-1.633-14.51-2.35-21.78-.305-2.883-.793-5.642-1.196-8.513zm42.026 14.594c.278 1.98.358 3.988.58 5.572.483 4.88.768 9.785 1.04 14.593.215 4.41 1.42 8.683 1.537 13.11-.03 1.214.49 2.757-.73 3.432-1.598.83-3.466 1.194-5.032.1-1.002-.666-1.57-.384-2.29.222-4.79 4.004-13.168 1.85-15.303-4.01-1.685-4.81-2.196-9.887-.897-15.016.955-3.264 2.673-6.13 6.38-7.054 1.753-.448 3.363.234 4.86.832 1.173.44 1.527.088 1.473-1.015.075-1.624.15-3.25-.073-4.834-.47-4.073-.15-8.257-.832-12.4-.488-2.76-2.612-1.35-4.156-.124-2.01 1.493-3.147 3.47-3.718 5.872-.386 1.57-1.082 3.08-1.27 4.62-.256 1.046.345 3.89-1.887 3.092-.538-.228-.65-1.02-.733-1.614-.264-1.88.35-3.986.905-5.78.955-3.263 1.88-6.018 4.474-8.4 1.43-1.313 3.626-2.933 5.62-3.112 2.277-.32 4.182 1.028 5.975 2.29 2.71 2.043 3.65 5.848 4.078 9.624zm-8.025 15.462c-.518-2.25-4.7-3.984-6.526-2.617-1.714 1.45-2.878 3.23-3.364 5.52-.7 3.63-.413 7.123-.124 10.616.386 3.48 1.807 6.41 5.522 7.705 3.49 1.126 6.932-1.68 6.432-5.243-.74-4.54-1.378-9.094-1.622-13.704l-.32-2.277zM95.498 45.13c-1.424-7.27-1.64-11.68-6.588-17.447-.832-.892-1.763-1.77-3.108-1.28-1.245.478-.668 1.71-.543 2.6 1.18 8.415 2.88 19.08 4.245 27.368.877 5.53 1.444 11.004 2.123 16.562-1.672 1.75-3.626 2.932-6.1 3.28-2.264.418-3.322-.645-3.883-2.484-.87-2.604-1.147-5.29-1.522-7.964-.457-3.974-.914-7.948-1.767-11.866-1.204-4.98-2.925-12.208-3.733-17.243-.405-2.164-1.378-3.34-3.285-3.98-1.158-.343-2.133-.812-2.71-2.043-.422-.85-1.254-1.742-2.584-1.152-1.344.492-1.106 1.468-.94 2.656 1.102 6.407 3.71 14.925 4.53 21.473l.305 2.177c1.215 5.785 1.554 11.794 4.03 17.2 1.87 3.978 4.905 6.177 9.358 6.26 3.846.064 6.367-2.107 8.51-4.83l.68 4.85c.598 4.258 1.28 8.402 1.284 12.742-.048 2.53-2.22 6.47-4.47 6.987-1.57.32-3.113.84-4.697 1.063-4.13.782-4.748-.747-6.704-4.61-.576-1.232-1.067-2.577-1.658-3.907-.182-.58-.69-1.317-1.37-1.12-.876.224-.553 1.087-.47 1.68 1.23 6.592 2.733 10.116 9.252 9.807 5.81-.31 11.44-1.203 15.355-6.396.666-1.002.95-1.85 1.11-2.882 1.12-7.123.02-14.237-.77-21.293-.827-8.77-2.15-17.467-3.882-26.21zm36.118-9.512c.125.89.137 1.697.163 2.602.578 6.28 1.044 12.473 1.523 18.765l.824 10.182c.26 4-.368 6.007-4.07 4.81-3.403-1.237-3.87-1.677-4.017-4.886-.085-5.64-1.457-11.1-1.656-16.828-.14-6.744-.744-13.928-2.184-20.59-.504-2.15-.68-5.558-3.78-3.91-2.916 1.52-4.777 5.515-5.675 8.468-.386 1.568-.914 3.56-.69 5.145.61 4.356.628 8.795.943 13.193.537 5.98.975 11.977 1.512 17.96.304 2.884-3.366 6.225-6.05 5.088-1.723-.768-2.622-2.862-2.9-4.842-1.012-8.64-1.91-17.197-2.71-25.766-.87-8.358-1.543-16.744-2.81-25.046-.96-6.124-.512-4.37-1.685-10.565-.418-2.263-.54-4.568-.662-6.873-.026-.904.598-1.497 1.334-2.004.934-.535 1.513-.01 2.275.387 4.32 2.725 5.64 7.083 6.702 11.78 1.285 6.28 1.374 4.753 1.867 11.145.11 1.498-.136 4.057 1.134 5.19 1.256 1.036 2.096-1.606 2.508-2.27 2.157-3.33 5.004-5.346 9.09-5.717 5.572-.58 5.58 1.64 7.646 7.002.942 2.392 1.204 4.98 1.368 7.58zm30.794-6.443c.278 1.98.358 3.988.58 5.572.483 4.878.768 9.785 1.04 14.593.215 4.41 1.42 8.684 1.537 13.11-.03 1.215.49 2.757-.73 3.433-1.598.83-3.466 1.194-5.032.1-1.002-.666-1.57-.384-2.29.222-4.79 4.004-13.168 1.85-15.303-4.01-1.685-4.81-2.196-9.888-.897-15.017.955-3.263 2.673-6.13 6.38-7.053 1.753-.448 3.363.234 4.86.83 1.173.443 1.527.09 1.473-1.013.075-1.626.15-3.25-.073-4.835-.47-4.073-.15-8.257-.832-12.4-.49-2.76-2.613-1.35-4.157-.125-2.01 1.494-3.147 3.47-3.718 5.873-.386 1.568-1.082 3.08-1.27 4.62-.256 1.046.345 3.89-1.887 3.092-.536-.228-.647-1.02-.73-1.614-.265-1.88.348-3.986.904-5.78.955-3.264 1.88-6.018 4.474-8.4 1.43-1.313 3.626-2.933 5.62-3.112 2.277-.32 4.182 1.03 5.975 2.29 2.71 2.044 3.648 5.85 4.077 9.625zm-8.025 15.462c-.518-2.25-4.7-3.984-6.526-2.617-1.715 1.452-2.88 3.23-3.365 5.52-.7 3.63-.413 7.124-.124 10.617.388 3.48 1.81 6.41 5.524 7.704 3.49 1.127 6.932-1.68 6.432-5.243-.74-4.54-1.378-9.094-1.622-13.703l-.32-2.277zm20.306 10.17c-2.04-10.21-4.106-20.622-6.075-31.046-.53-2.347-.483-4.878-1.806-7.115-.396-.65-.182-1.287.44-1.88.526-.578 1.063-.35 1.684-.236 2.997.487 5.013 2.627 7.172 4.343 1.03.865.8 2.815 1.192 4.173.168.482-.045 1.117.577 1.232.522.128.623-.592.864-1.03 2.014-2.908 3.69-6.07 6.156-8.638 2.197-2.327 6.142-2.275 8.3.147 1.423 1.517 2.168 3.23 2.56 5.294 2.447 10.964 3.72 22.193 4.598 33.477.138 1.697.572 3.352.907 5.02.434 2.363-.787 4.453-2.838 4.943-1.57.32-4.04-1.452-4.573-3.093-1.673-4.712-2.17-9.69-2.554-14.583-.23-3.804-.858-7.552-1.188-11.34-.483-4.88-.88-9.872-1.364-14.75l-.21-1.486c-.25-1.075-.69-1.316-1.68-.47-2.324 2.143-3.97 4.797-5.603 7.55-.084.113-.056.31-.14.424-3.546 4.233-1.507 8.69-.867 13.245 1.042 7.425 3.386 14.768 3.34 22.346-.09 2.234-1.748 3.375-3.867 2.663-2.783-1.123-4.73-2.768-4.594-6.12.073-.917-.264-1.88-.43-3.068z" fill="#E55888"/><path d="M233.785 18.48c-.374-.764-2.87-.144-2.638-.92.313-1.052 1.086-2.674-.49-2.872-1.975-.247-4.357 1.122-5.78 2.31.18-2.023-.205-4.043-1.46-5.7-2.3-3.04-1.914-.983-3.357.488-.354.362-2.16-.958-2.53-1.082-1.037-.35-1.07 2.45-1.06 2.88.024 1.53.126 2.582.7 3.988-1.883-.79-3.94-1.047-5.92-.372-3.63 1.238-1.538 1.505-.576 3.318.67 1.26-4.103 2.245-.358 3.628 1.746.645 3.202 1.003 5.006.874-1.343 1.534-2.23 3.395-2.2 5.47.058 3.805.965 1.913 3.003 1.56 1.416-.243.875 4.562 3.367 1.453 1.16-1.45 1.958-2.714 2.396-4.454.868 1.432 2 2.608 3.537 3.35.905.438 2.7 1.104 3.68.555.746-.713-.34-1.737-.226-2.507.072-.498 2.317-.485 2.69-.6 1.048-.322-.585-2.602-.846-2.946-.928-1.22-1.633-2.01-2.93-2.812 2.193-.506 6.56-2.8 5.99-5.61-.025-.056.03.14 0 0zm-11.948 4.418c-.188.084-.28.325-.368.483-.225-.368-.425-.437-.843-.52.286-.325.29-.535.24-.954.4.167.603.106.99-.072-.057.64.614.78-.02 1.064-.008.003.095-.043 0 0z" id="Imported-Layers" fill="#E8E8EB"/><path d="M228.943 13.637c-.374-.764-2.87-.143-2.638-.92.313-1.05 1.086-2.673-.49-2.87-1.975-.248-4.357 1.12-5.78 2.307.18-2.02-.205-4.04-1.46-5.7-2.3-3.04-1.914-.982-3.357.49-.354.36-2.16-.958-2.53-1.083-1.037-.348-1.07 2.45-1.062 2.883.026 1.53.128 2.58.7 3.987-1.882-.79-3.938-1.047-5.918-.372-3.63 1.237-1.538 1.504-.576 3.317.67 1.26-4.103 2.246-.358 3.63 1.745.643 3.202 1.002 5.005.873-1.343 1.534-2.23 3.395-2.2 5.47.058 3.805.964 1.912 3.002 1.56 1.417-.243.876 4.56 3.367 1.452 1.16-1.45 1.958-2.713 2.395-4.454.87 1.434 2 2.61 3.538 3.353.904.436 2.7 1.102 3.68.553.745-.713-.34-1.738-.226-2.507.072-.498 2.318-.486 2.69-.6 1.05-.323-.584-2.603-.846-2.947-.926-1.222-1.63-2.01-2.93-2.812 2.194-.506 6.56-2.8 5.993-5.61-.027-.056.028.138 0 0zm-11.948 4.418c-.188.085-.28.325-.368.484-.224-.37-.425-.44-.842-.52.285-.327.29-.537.24-.957.4.168.603.106.99-.07-.057.638.614.777-.02 1.062-.008.004.095-.042 0 0z" fill="#E55888"/></g></svg>